<?xml version="1.0" encoding="utf-8"?>
<!-- Generator: Adobe Illustrator 18.0.0, SVG Export Plug-In . SVG Version: 6.00 Build 0)  -->
<!DOCTYPE svg PUBLIC "-//W3C//DTD SVG 1.1//EN" "http://www.w3.org/Graphics/SVG/1.1/DTD/svg11.dtd">
<svg version="1.1" id="Layer_1" xmlns="http://www.w3.org/2000/svg" xmlns:xlink="http://www.w3.org/1999/xlink" x="0px" y="0px"
	 viewBox="0 0 16 16" enable-background="new 0 0 16 16" xml:space="preserve">
<path fill="#34D399" d="M15.4,6.8L9.2,0.6C8.5,0,7.5,0,6.8,0.6L0.6,6.8C0,7.5,0,8.5,0.6,9.2l6.2,6.2c0.7,0.7,1.8,0.7,2.4,0l6.2-6.2
	C16,8.5,16,7.5,15.4,6.8z M4.9,9.7l-0.9,1L1.8,8.3L4.1,6l0.9,1L3.6,8.3L4.9,9.7z M7,12.1H5.8l3.1-8.3h1.3L7,12.1z M14.2,8.3
	l-2.3,2.3L11,9.7l1.4-1.4L11,6.8l0.9-0.9L14.2,8.3L14.2,8.3z"/>
</svg>
